<svg xmlns="http://www.w3.org/2000/svg" viewBox="0 0 400 170" fill="none">
  <title>常夜燈 横ロックアップ 09 ／ 単体横組み（アウトライン化済）</title>
  <desc>Joyatou horizontal lockup — mark + 常夜燈, text outlined</desc>
  <g transform="translate(0,0) scale(0.85)">
  <rect x="60" y="23" width="80" height="10" fill="#16181d"></rect>
  <rect x="77" y="43" width="46" height="3" fill="#16181d"></rect>
  <rect x="50" y="57" width="100" height="57" stroke="#16181d" stroke-width="2.5" fill="none"></rect>
  <circle cx="100" cy="85" r="5" fill="#16181d"></circle>
  <rect x="77" y="123" width="46" height="3" fill="#16181d"></rect>
  <rect x="60" y="137" width="80" height="10" fill="#16181d"></rect>
  <rect x="83" y="160" width="34" height="17" fill="#16181d"></rect></g>
  <path fill="#16181d" d="M225.444 73.916L226.410 72.812Q226.594 72.628 227.008 72.145Q227.422 71.662 227.698 71.662L227.698 71.662Q227.974 71.662 228.894 72.490Q229.814 73.318 230.619 74.238Q231.424 75.158 231.424 75.480L231.424 75.480Q231.148 75.710 230.780 75.802Q230.412 75.894 229.768 75.940L229.768 75.940Q228.802 76.952 227.307 78.171Q225.812 79.390 224.478 80.264L224.478 80.264L223.926 79.896Q224.708 78.148 225.582 75.250L225.582 75.250L197.200 75.250Q197.246 77.504 196.533 79.137Q195.820 80.770 194.716 81.506L194.716 81.506Q193.796 82.104 192.968 82.104L192.968 82.104Q192.186 82.104 191.680 81.644Q191.174 81.184 191.174 80.310L191.174 80.310Q191.174 79.666 191.565 79.114Q191.956 78.562 192.600 78.240L192.600 78.240Q193.934 77.366 194.923 75.503Q195.912 73.640 195.866 71.570L195.866 71.570L196.556 71.524Q196.786 72.214 197.108 73.916L197.108 73.916L209.160 73.916Q209.160 68.626 208.608 65.130L208.608 65.130Q211.552 65.912 212.679 66.349Q213.806 66.786 213.806 67.108L213.806 67.108Q213.806 67.292 213.438 67.522L213.438 67.522L212.702 68.028L212.702 73.916L216.014 73.916Q217.118 71.984 218.061 69.592Q219.004 67.200 219.372 65.360L219.372 65.360Q224.524 67.430 224.524 68.028L224.524 68.028Q224.524 68.212 224.110 68.304L224.110 68.304L223.236 68.534Q220.292 71.662 217.348 73.916L217.348 73.916L225.444 73.916ZM198.166 66.280L198.580 65.912Q201.892 66.740 203.456 68.258Q205.020 69.776 205.020 71.340L205.020 71.340Q205.020 72.260 204.491 72.904Q203.962 73.548 203.180 73.548L203.180 73.548Q202.536 73.548 201.754 72.996L201.754 72.996Q201.616 71.340 200.558 69.431Q199.500 67.522 198.166 66.280L198.166 66.280ZM218.268 79.298L219.096 78.194Q219.234 78.010 219.487 77.688Q219.740 77.366 219.901 77.228Q220.062 77.090 220.246 77.090L220.246 77.090Q220.522 77.090 221.419 77.757Q222.316 78.424 223.075 79.206Q223.834 79.988 223.834 80.310L223.834 80.310Q223.650 80.540 223.190 80.793Q222.730 81.046 222.178 81.184L222.178 81.184L222.178 83.622L222.224 85.048Q222.270 86.750 222.408 88.222L222.408 88.222Q222.178 88.590 221.143 89.027Q220.108 89.464 219.280 89.464L219.280 89.464L218.682 89.464L218.682 87.762L212.656 87.762L212.656 92.454L221.718 92.454L222.454 91.442Q222.592 91.258 222.799 90.982Q223.006 90.706 223.167 90.568Q223.328 90.430 223.512 90.430L223.512 90.430Q223.788 90.430 224.777 91.097Q225.766 91.764 226.617 92.500Q227.468 93.236 227.468 93.558L227.468 93.558Q227.238 93.834 226.732 94.110Q226.226 94.386 225.674 94.478L225.674 94.478L225.674 101.102Q225.674 102.528 225.306 103.448Q224.938 104.368 223.834 104.943Q222.730 105.518 220.568 105.748L220.568 105.748Q220.430 104.736 220.269 104.161Q220.108 103.586 219.694 103.172L219.694 103.172Q218.590 102.206 216.152 101.930L216.152 101.930L216.152 101.286Q220.246 101.516 221.212 101.516L221.212 101.516Q221.764 101.516 221.948 101.332Q222.132 101.148 222.132 100.688L222.132 100.688L222.132 93.788L212.656 93.788L212.656 97.974Q212.794 103.218 212.978 106.070L212.978 106.070Q212.656 106.622 211.782 107.128Q210.908 107.634 209.712 107.634L209.712 107.634Q209.298 107.634 209.045 107.358Q208.792 107.082 208.792 106.714L208.792 106.714Q209.068 102.574 209.160 98.434L209.160 98.434L209.160 93.788L199.960 93.788L199.960 97.422Q200.052 101.838 200.236 104.414L200.236 104.414Q200.006 104.874 198.994 105.334Q197.982 105.794 196.970 105.794L196.970 105.794Q196.602 105.794 196.395 105.518Q196.188 105.242 196.188 104.874L196.188 104.874Q196.372 103.310 196.464 100.826L196.464 100.826L196.464 98.296Q196.464 93.512 196.004 90.568L196.004 90.568L200.236 92.454L209.160 92.454L209.160 87.762L203.364 87.762L203.364 88.912Q203.364 89.188 202.375 89.625Q201.386 90.062 200.420 90.062L200.420 90.062Q200.052 90.062 199.868 89.786Q199.684 89.510 199.684 89.142L199.684 89.142Q199.822 88.084 199.868 86.980L199.868 86.980Q199.868 86.336 199.914 85.922L199.914 85.922L199.914 83.852Q199.914 79.804 199.546 77.458L199.546 77.458L203.640 79.298L218.268 79.298ZM218.682 86.428L218.682 80.632L203.364 80.632L203.364 86.428L218.682 86.428Z M279.386 72.122L280.490 70.466Q280.674 70.190 280.996 69.730Q281.318 69.270 281.525 69.040Q281.732 68.810 281.916 68.810L281.916 68.810Q282.192 68.810 283.273 69.661Q284.354 70.512 285.297 71.455Q286.240 72.398 286.240 72.720L286.240 72.720Q286.056 73.456 285.044 73.456L285.044 73.456L268.576 73.456Q270.968 74.238 271.934 74.675Q272.900 75.112 272.900 75.388L272.900 75.388Q272.900 75.526 272.486 75.710L272.486 75.710L271.658 76.032Q270.692 78.332 269.818 80.080L269.818 80.080L278.006 80.080L279.018 78.976Q279.202 78.792 279.662 78.309Q280.122 77.826 280.398 77.826L280.398 77.826Q280.674 77.826 281.548 78.585Q282.422 79.344 283.181 80.195Q283.940 81.046 283.940 81.368L283.940 81.368Q283.710 81.690 283.296 81.828Q282.882 81.966 282.054 82.058L282.054 82.058Q279.248 91.488 273.636 97.606L273.636 97.606Q279.064 101.746 287.160 103.632L287.160 103.632L287.068 104.138Q284.584 104.828 284.032 107.680L284.032 107.680Q276.212 104.966 271.474 99.722L271.474 99.722Q265.632 104.966 257.260 107.634L257.260 107.634L256.846 106.990Q264.482 103.586 269.818 97.698L269.818 97.698Q266.736 93.558 264.666 87.808L264.666 87.808Q261.814 91.212 258.318 93.558L258.318 93.558L257.720 93.052Q261.032 89.648 263.861 84.473Q266.690 79.298 268.254 73.456L268.254 73.456L257.536 73.456Q261.492 75.112 261.492 75.618L261.492 75.618Q261.492 75.756 260.986 75.940L260.986 75.940L260.066 76.170Q258.088 80.126 255.466 83.530L255.466 83.530Q257.260 84.772 257.260 85.324L257.260 85.324Q257.260 85.554 256.846 85.784L256.846 85.784L256.202 86.060L256.202 95.582Q256.294 101.286 256.570 106.392L256.570 106.392Q256.156 106.852 255.190 107.289Q254.224 107.726 253.304 107.726L253.304 107.726Q252.844 107.726 252.499 107.450Q252.154 107.174 252.154 106.806L252.154 106.806Q252.338 104.092 252.476 101.539Q252.614 98.986 252.660 94.846L252.660 94.846L252.660 86.796Q249.578 90.154 245.944 92.546L245.944 92.546L245.438 92.040Q248.612 88.866 251.694 83.898Q254.776 78.930 256.800 73.456L256.800 73.456L253.212 73.456Q250.084 73.502 246.680 74.100L246.680 74.100L245.438 71.754Q247.968 72.030 251.556 72.122L251.556 72.122L264.068 72.122Q264.068 67.982 263.654 65.084L263.654 65.084Q268.944 66.372 268.944 67.062L268.944 67.062Q268.944 67.246 268.530 67.476L268.530 67.476L267.748 67.982L267.748 72.122L279.386 72.122ZM267.748 83.622Q266.874 85.048 265.356 86.980L265.356 86.980Q267.656 92.132 271.428 95.720L271.428 95.720Q276.028 89.648 278.190 81.414L278.190 81.414L269.082 81.414Q268.760 82.012 267.840 83.484L267.840 83.484L268.162 83.300Q271.152 84.220 272.532 85.646Q273.912 87.072 273.912 88.452L273.912 88.452Q273.912 89.326 273.429 89.878Q272.946 90.430 272.256 90.430L272.256 90.430Q271.520 90.430 270.876 89.832L270.876 89.832Q270.692 88.360 269.795 86.635Q268.898 84.910 267.748 83.622L267.748 83.622Z M313.916 101.286Q313.226 101.286 312.536 100.734L312.536 100.734Q312.214 99.078 311.133 97.100Q310.052 95.122 308.626 93.420L308.626 93.420Q307.752 97.928 305.935 101.332Q304.118 104.736 300.898 107.358L300.898 107.358L300.254 106.576Q302.876 103.494 304.210 99.492Q305.544 95.490 305.981 90.614Q306.418 85.738 306.418 78.470L306.418 78.470L306.326 76.354Q306.050 67.200 305.774 65.498L305.774 65.498Q308.626 66.234 309.776 66.717Q310.926 67.200 310.926 67.522L310.926 67.522Q310.926 67.752 310.558 67.982L310.558 67.982L309.822 68.488L309.730 80.724Q310.466 79.252 311.156 77.481Q311.846 75.710 312.168 74.376L312.168 74.376Q315.986 76.814 315.986 77.412L315.986 77.412Q315.986 77.596 315.572 77.688L315.572 77.688L314.790 77.826Q312.674 80.034 309.684 82.380L309.684 82.380Q309.454 88.820 308.856 92.224L308.856 92.224Q312.260 93.788 313.847 95.697Q315.434 97.606 315.434 99.308L315.434 99.308Q315.434 100.182 314.997 100.734Q314.560 101.286 313.916 101.286L313.916 101.286ZM334.524 76.308Q338.066 79.850 341.976 81.506L341.976 81.506L341.930 82.012Q340.964 82.196 340.251 82.932Q339.538 83.668 339.216 84.864L339.216 84.864Q330.476 79.390 327.302 65.866L327.302 65.866L328.038 65.590Q329.050 68.672 330.798 71.478L330.798 71.478Q331.810 70.236 332.684 68.718Q333.558 67.200 334.018 66.004L334.018 66.004Q335.996 67.430 336.801 68.120Q337.606 68.810 337.606 69.086L337.606 69.086Q337.606 69.270 337.146 69.362L337.146 69.362L336.318 69.408Q333.742 71.110 331.350 72.352L331.350 72.352Q332.454 74.008 333.788 75.480L333.788 75.480Q334.892 74.284 335.881 72.789Q336.870 71.294 337.330 70.052L337.330 70.052Q340.918 72.628 340.918 73.180L340.918 73.180Q340.918 73.410 340.458 73.410L340.458 73.410L339.630 73.410Q337.376 74.882 334.524 76.308L334.524 76.308ZM313.456 71.340L313.824 70.972Q316.998 71.386 318.447 72.582Q319.896 73.778 319.758 75.066L319.758 75.066Q321.276 72.122 322.058 69.270L322.058 69.270L319.390 69.270Q317.182 69.316 314.698 69.914L314.698 69.914L313.456 67.568Q315.802 67.844 319.160 67.936L319.160 67.936L321.920 67.936L322.840 66.832Q323.024 66.648 323.415 66.188Q323.806 65.728 324.082 65.728L324.082 65.728Q324.496 65.728 325.853 67.131Q327.210 68.534 327.210 69.040L327.210 69.040Q327.026 69.316 326.658 69.431Q326.290 69.546 325.462 69.638L325.462 69.638Q323.392 75.526 319.390 79.942L319.390 79.942Q321.828 80.218 325.232 80.310L325.232 80.310L328.038 80.310L328.912 79.022Q329.096 78.792 329.303 78.470Q329.510 78.148 329.740 77.918Q329.970 77.688 330.154 77.688L330.154 77.688Q330.430 77.688 331.304 78.378Q332.178 79.068 332.937 79.850Q333.696 80.632 333.696 80.954L333.696 80.954Q333.512 81.690 332.546 81.690L332.546 81.690L324.128 81.690Q322.334 81.736 320.448 82.334L320.448 82.334L319.298 80.080Q315.986 83.714 311.524 85.922L311.524 85.922L311.064 85.232Q315.848 81.920 319.160 76.216L319.160 76.216Q318.792 76.446 318.286 76.446L318.286 76.446Q317.780 76.446 317.182 76.124L317.182 76.124Q316.814 74.928 315.733 73.571Q314.652 72.214 313.456 71.340L313.456 71.340ZM301.726 87.762Q301.082 87.762 300.645 87.325Q300.208 86.888 300.208 86.198L300.208 86.198Q300.208 85.232 301.220 84.082L301.220 84.082Q301.956 83.162 302.554 80.885Q303.152 78.608 303.060 76.032L303.060 76.032L303.750 75.986Q304.854 79.482 304.854 82.288L304.854 82.288Q304.854 85.370 303.428 86.934L303.428 86.934Q302.646 87.762 301.726 87.762L301.726 87.762ZM337.468 86.336Q336.962 86.888 335.904 87.072L335.904 87.072L335.904 89.740L335.950 91.350Q335.996 93.190 336.134 94.800L336.134 94.800Q335.904 95.168 335.053 95.536Q334.202 95.904 333.052 95.904L333.052 95.904L332.500 95.904L332.500 94.110L320.218 94.110L320.218 95.674Q320.218 95.950 319.413 96.295Q318.608 96.640 317.458 96.640L317.458 96.640Q317.090 96.640 316.883 96.364Q316.676 96.088 316.676 95.720L316.676 95.720Q316.814 94.570 316.860 93.466L316.860 93.466L316.906 92.408L316.906 90.246Q316.906 86.336 316.492 83.668L316.492 83.668L320.678 85.554L332.362 85.554L333.098 84.404Q333.236 84.220 333.466 83.898Q333.696 83.576 333.857 83.415Q334.018 83.254 334.202 83.254L334.202 83.254Q334.478 83.254 335.283 83.898Q336.088 84.542 336.778 85.278Q337.468 86.014 337.468 86.336L337.468 86.336ZM320.218 86.888L320.218 92.730L332.500 92.730L332.500 86.888L320.218 86.888ZM337.882 101.930Q338.158 101.930 339.078 102.666Q339.998 103.402 340.803 104.253Q341.608 105.104 341.608 105.426L341.608 105.426Q341.470 106.116 340.504 106.116L340.504 106.116L319.252 106.116Q315.986 106.162 312.352 106.760L312.352 106.760L311.202 104.460Q313.732 104.736 317.320 104.828L317.320 104.828L327.118 104.828Q328.038 102.712 328.682 100.182Q329.326 97.652 329.418 95.720L329.418 95.720Q334.616 97.192 334.616 97.790L334.616 97.790Q334.616 97.928 334.202 98.112L334.202 98.112L333.420 98.434Q332.454 99.998 331.074 101.700Q329.694 103.402 328.176 104.828L328.176 104.828L335.628 104.828L336.594 103.402Q336.732 103.218 337.008 102.781Q337.284 102.344 337.491 102.137Q337.698 101.930 337.882 101.930L337.882 101.930ZM322.702 104.414Q321.920 104.414 321.138 103.586L321.138 103.586Q321.184 101.976 320.655 100.044Q320.126 98.112 319.344 96.594L319.344 96.594L319.850 96.364Q322.334 97.606 323.461 99.124Q324.588 100.642 324.588 102.022L324.588 102.022Q324.588 103.034 324.036 103.724Q323.484 104.414 322.702 104.414L322.702 104.414Z"></path>
</svg>