<svg xmlns="http://www.w3.org/2000/svg" viewBox="0 0 200 300" fill="none">
  <title>常夜燈 縦ロックアップ 11 ／ ライト（アウトライン化済）</title>
  <desc>Joyatou vertical lockup — stacked center, ink on transparent, text outlined</desc>
  <g transform="translate(25,10) scale(0.75)">
  <rect x="60" y="23" width="80" height="10" fill="#16181d"></rect>
  <rect x="77" y="43" width="46" height="3" fill="#16181d"></rect>
  <rect x="50" y="57" width="100" height="57" stroke="#16181d" stroke-width="2.5" fill="none"></rect>
  <circle cx="100" cy="85" r="5" fill="#16181d"></circle>
  <rect x="77" y="123" width="46" height="3" fill="#16181d"></rect>
  <rect x="60" y="137" width="80" height="10" fill="#16181d"></rect>
  <rect x="83" y="160" width="34" height="17" fill="#16181d"></rect></g>
  <line x1="65" y1="172" x2="135" y2="172" stroke="#16181d" stroke-width="0.75" stroke-opacity="0.4"></line>
  <path fill="#16181d" d="M72.908 185.612L73.370 185.084Q73.458 184.996 73.656 184.765Q73.854 184.534 73.986 184.534L73.986 184.534Q74.118 184.534 74.558 184.930Q74.998 185.326 75.383 185.766Q75.768 186.206 75.768 186.360L75.768 186.360Q75.636 186.470 75.460 186.514Q75.284 186.558 74.976 186.580L74.976 186.580Q74.514 187.064 73.799 187.647Q73.084 188.230 72.446 188.648L72.446 188.648L72.182 188.472Q72.556 187.636 72.974 186.250L72.974 186.250L59.400 186.250Q59.422 187.328 59.081 188.109Q58.740 188.890 58.212 189.242L58.212 189.242Q57.772 189.528 57.376 189.528L57.376 189.528Q57.002 189.528 56.760 189.308Q56.518 189.088 56.518 188.670L56.518 188.670Q56.518 188.362 56.705 188.098Q56.892 187.834 57.200 187.680L57.200 187.680Q57.838 187.262 58.311 186.371Q58.784 185.480 58.762 184.490L58.762 184.490L59.092 184.468Q59.202 184.798 59.356 185.612L59.356 185.612L65.120 185.612Q65.120 183.082 64.856 181.410L64.856 181.410Q66.264 181.784 66.803 181.993Q67.342 182.202 67.342 182.356L67.342 182.356Q67.342 182.444 67.166 182.554L67.166 182.554L66.814 182.796L66.814 185.612L68.398 185.612Q68.926 184.688 69.377 183.544Q69.828 182.400 70.004 181.520L70.004 181.520Q72.468 182.510 72.468 182.796L72.468 182.796Q72.468 182.884 72.270 182.928L72.270 182.928L71.852 183.038Q70.444 184.534 69.036 185.612L69.036 185.612L72.908 185.612ZM59.862 181.960L60.060 181.784Q61.644 182.180 62.392 182.906Q63.140 183.632 63.140 184.380L63.140 184.380Q63.140 184.820 62.887 185.128Q62.634 185.436 62.260 185.436L62.260 185.436Q61.952 185.436 61.578 185.172L61.578 185.172Q61.512 184.380 61.006 183.467Q60.500 182.554 59.862 181.960L59.862 181.960ZM69.476 188.186L69.872 187.658Q69.938 187.570 70.059 187.416Q70.180 187.262 70.257 187.196Q70.334 187.130 70.422 187.130L70.422 187.130Q70.554 187.130 70.983 187.449Q71.412 187.768 71.775 188.142Q72.138 188.516 72.138 188.670L72.138 188.670Q72.050 188.780 71.830 188.901Q71.610 189.022 71.346 189.088L71.346 189.088L71.346 190.254L71.368 190.936Q71.390 191.750 71.456 192.454L71.456 192.454Q71.346 192.630 70.851 192.839Q70.356 193.048 69.960 193.048L69.960 193.048L69.674 193.048L69.674 192.234L66.792 192.234L66.792 194.478L71.126 194.478L71.478 193.994Q71.544 193.906 71.643 193.774Q71.742 193.642 71.819 193.576Q71.896 193.510 71.984 193.510L71.984 193.510Q72.116 193.510 72.589 193.829Q73.062 194.148 73.469 194.500Q73.876 194.852 73.876 195.006L73.876 195.006Q73.766 195.138 73.524 195.270Q73.282 195.402 73.018 195.446L73.018 195.446L73.018 198.614Q73.018 199.296 72.842 199.736Q72.666 200.176 72.138 200.451Q71.610 200.726 70.576 200.836L70.576 200.836Q70.510 200.352 70.433 200.077Q70.356 199.802 70.158 199.604L70.158 199.604Q69.630 199.142 68.464 199.010L68.464 199.010L68.464 198.702Q70.422 198.812 70.884 198.812L70.884 198.812Q71.148 198.812 71.236 198.724Q71.324 198.636 71.324 198.416L71.324 198.416L71.324 195.116L66.792 195.116L66.792 197.118Q66.858 199.626 66.946 200.990L66.946 200.990Q66.792 201.254 66.374 201.496Q65.956 201.738 65.384 201.738L65.384 201.738Q65.186 201.738 65.065 201.606Q64.944 201.474 64.944 201.298L64.944 201.298Q65.076 199.318 65.120 197.338L65.120 197.338L65.120 195.116L60.720 195.116L60.720 196.854Q60.764 198.966 60.852 200.198L60.852 200.198Q60.742 200.418 60.258 200.638Q59.774 200.858 59.290 200.858L59.290 200.858Q59.114 200.858 59.015 200.726Q58.916 200.594 58.916 200.418L58.916 200.418Q59.004 199.670 59.048 198.482L59.048 198.482L59.048 197.272Q59.048 194.984 58.828 193.576L58.828 193.576L60.852 194.478L65.120 194.478L65.120 192.234L62.348 192.234L62.348 192.784Q62.348 192.916 61.875 193.125Q61.402 193.334 60.940 193.334L60.940 193.334Q60.764 193.334 60.676 193.202Q60.588 193.070 60.588 192.894L60.588 192.894Q60.654 192.388 60.676 191.860L60.676 191.860Q60.676 191.552 60.698 191.354L60.698 191.354L60.698 190.364Q60.698 188.428 60.522 187.306L60.522 187.306L62.480 188.186L69.476 188.186ZM69.674 191.596L69.674 188.824L62.348 188.824L62.348 191.596L69.674 191.596Z M106.402 184.754L106.930 183.962Q107.018 183.830 107.172 183.610Q107.326 183.390 107.425 183.280Q107.524 183.170 107.612 183.170L107.612 183.170Q107.744 183.170 108.261 183.577Q108.778 183.984 109.229 184.435Q109.680 184.886 109.680 185.040L109.680 185.040Q109.592 185.392 109.108 185.392L109.108 185.392L101.232 185.392Q102.376 185.766 102.838 185.975Q103.300 186.184 103.300 186.316L103.300 186.316Q103.300 186.382 103.102 186.470L103.102 186.470L102.706 186.624Q102.244 187.724 101.826 188.560L101.826 188.560L105.742 188.560L106.226 188.032Q106.314 187.944 106.534 187.713Q106.754 187.482 106.886 187.482L106.886 187.482Q107.018 187.482 107.436 187.845Q107.854 188.208 108.217 188.615Q108.580 189.022 108.580 189.176L108.580 189.176Q108.470 189.330 108.272 189.396Q108.074 189.462 107.678 189.506L107.678 189.506Q106.336 194.016 103.652 196.942L103.652 196.942Q106.248 198.922 110.120 199.824L110.120 199.824L110.076 200.066Q108.888 200.396 108.624 201.760L108.624 201.760Q104.884 200.462 102.618 197.954L102.618 197.954Q99.824 200.462 95.820 201.738L95.820 201.738L95.622 201.430Q99.274 199.802 101.826 196.986L101.826 196.986Q100.352 195.006 99.362 192.256L99.362 192.256Q97.998 193.884 96.326 195.006L96.326 195.006L96.040 194.764Q97.624 193.136 98.977 190.661Q100.330 188.186 101.078 185.392L101.078 185.392L95.952 185.392Q97.844 186.184 97.844 186.426L97.844 186.426Q97.844 186.492 97.602 186.580L97.602 186.580L97.162 186.690Q96.216 188.582 94.962 190.210L94.962 190.210Q95.820 190.804 95.820 191.068L95.820 191.068Q95.820 191.178 95.622 191.288L95.622 191.288L95.314 191.420L95.314 195.974Q95.358 198.702 95.490 201.144L95.490 201.144Q95.292 201.364 94.830 201.573Q94.368 201.782 93.928 201.782L93.928 201.782Q93.708 201.782 93.543 201.650Q93.378 201.518 93.378 201.342L93.378 201.342Q93.466 200.044 93.532 198.823Q93.598 197.602 93.620 195.622L93.620 195.622L93.620 191.772Q92.146 193.378 90.408 194.522L90.408 194.522L90.166 194.280Q91.684 192.762 93.158 190.386Q94.632 188.010 95.600 185.392L95.600 185.392L93.884 185.392Q92.388 185.414 90.760 185.700L90.760 185.700L90.166 184.578Q91.376 184.710 93.092 184.754L93.092 184.754L99.076 184.754Q99.076 182.774 98.878 181.388L98.878 181.388Q101.408 182.004 101.408 182.334L101.408 182.334Q101.408 182.422 101.210 182.532L101.210 182.532L100.836 182.774L100.836 184.754L106.402 184.754ZM100.836 190.254Q100.418 190.936 99.692 191.860L99.692 191.860Q100.792 194.324 102.596 196.040L102.596 196.040Q104.796 193.136 105.830 189.198L105.830 189.198L101.474 189.198Q101.320 189.484 100.880 190.188L100.880 190.188L101.034 190.100Q102.464 190.540 103.124 191.222Q103.784 191.904 103.784 192.564L103.784 192.564Q103.784 192.982 103.553 193.246Q103.322 193.510 102.992 193.510L102.992 193.510Q102.640 193.510 102.332 193.224L102.332 193.224Q102.244 192.520 101.815 191.695Q101.386 190.870 100.836 190.254L100.836 190.254Z M130.612 198.702Q130.282 198.702 129.952 198.438L129.952 198.438Q129.798 197.646 129.281 196.700Q128.764 195.754 128.082 194.940L128.082 194.940Q127.664 197.096 126.795 198.724Q125.926 200.352 124.386 201.606L124.386 201.606L124.078 201.232Q125.332 199.758 125.970 197.844Q126.608 195.930 126.817 193.598Q127.026 191.266 127.026 187.790L127.026 187.790L126.982 186.778Q126.850 182.400 126.718 181.586L126.718 181.586Q128.082 181.938 128.632 182.169Q129.182 182.400 129.182 182.554L129.182 182.554Q129.182 182.664 129.006 182.774L129.006 182.774L128.654 183.016L128.610 188.868Q128.962 188.164 129.292 187.317Q129.622 186.470 129.776 185.832L129.776 185.832Q131.602 186.998 131.602 187.284L131.602 187.284Q131.602 187.372 131.404 187.416L131.404 187.416L131.030 187.482Q130.018 188.538 128.588 189.660L128.588 189.660Q128.478 192.740 128.192 194.368L128.192 194.368Q129.820 195.116 130.579 196.029Q131.338 196.942 131.338 197.756L131.338 197.756Q131.338 198.174 131.129 198.438Q130.920 198.702 130.612 198.702L130.612 198.702ZM140.468 186.756Q142.162 188.450 144.032 189.242L144.032 189.242L144.010 189.484Q143.548 189.572 143.207 189.924Q142.866 190.276 142.712 190.848L142.712 190.848Q138.532 188.230 137.014 181.762L137.014 181.762L137.366 181.630Q137.850 183.104 138.686 184.446L138.686 184.446Q139.170 183.852 139.588 183.126Q140.006 182.400 140.226 181.828L140.226 181.828Q141.172 182.510 141.557 182.840Q141.942 183.170 141.942 183.302L141.942 183.302Q141.942 183.390 141.722 183.434L141.722 183.434L141.326 183.456Q140.094 184.270 138.950 184.864L138.950 184.864Q139.478 185.656 140.116 186.360L140.116 186.360Q140.644 185.788 141.117 185.073Q141.590 184.358 141.810 183.764L141.810 183.764Q143.526 184.996 143.526 185.260L143.526 185.260Q143.526 185.370 143.306 185.370L143.306 185.370L142.910 185.370Q141.832 186.074 140.468 186.756L140.468 186.756ZM130.392 184.380L130.568 184.204Q132.086 184.402 132.779 184.974Q133.472 185.546 133.406 186.162L133.406 186.162Q134.132 184.754 134.506 183.390L134.506 183.390L133.230 183.390Q132.174 183.412 130.986 183.698L130.986 183.698L130.392 182.576Q131.514 182.708 133.120 182.752L133.120 182.752L134.440 182.752L134.880 182.224Q134.968 182.136 135.155 181.916Q135.342 181.696 135.474 181.696L135.474 181.696Q135.672 181.696 136.321 182.367Q136.970 183.038 136.970 183.280L136.970 183.280Q136.882 183.412 136.706 183.467Q136.530 183.522 136.134 183.566L136.134 183.566Q135.144 186.382 133.230 188.494L133.230 188.494Q134.396 188.626 136.024 188.670L136.024 188.670L137.366 188.670L137.784 188.054Q137.872 187.944 137.971 187.790Q138.070 187.636 138.180 187.526Q138.290 187.416 138.378 187.416L138.378 187.416Q138.510 187.416 138.928 187.746Q139.346 188.076 139.709 188.450Q140.072 188.824 140.072 188.978L140.072 188.978Q139.984 189.330 139.522 189.330L139.522 189.330L135.496 189.330Q134.638 189.352 133.736 189.638L133.736 189.638L133.186 188.560Q131.602 190.298 129.468 191.354L129.468 191.354L129.248 191.024Q131.536 189.440 133.120 186.712L133.120 186.712Q132.944 186.822 132.702 186.822L132.702 186.822Q132.460 186.822 132.174 186.668L132.174 186.668Q131.998 186.096 131.481 185.447Q130.964 184.798 130.392 184.380L130.392 184.380ZM124.782 192.234Q124.474 192.234 124.265 192.025Q124.056 191.816 124.056 191.486L124.056 191.486Q124.056 191.024 124.540 190.474L124.540 190.474Q124.892 190.034 125.178 188.945Q125.464 187.856 125.420 186.624L125.420 186.624L125.750 186.602Q126.278 188.274 126.278 189.616L126.278 189.616Q126.278 191.090 125.596 191.838L125.596 191.838Q125.222 192.234 124.782 192.234L124.782 192.234ZM141.876 191.552Q141.634 191.816 141.128 191.904L141.128 191.904L141.128 193.180L141.150 193.950Q141.172 194.830 141.238 195.600L141.238 195.600Q141.128 195.776 140.721 195.952Q140.314 196.128 139.764 196.128L139.764 196.128L139.500 196.128L139.500 195.270L133.626 195.270L133.626 196.018Q133.626 196.150 133.241 196.315Q132.856 196.480 132.306 196.480L132.306 196.480Q132.130 196.480 132.031 196.348Q131.932 196.216 131.932 196.040L131.932 196.040Q131.998 195.490 132.020 194.962L132.020 194.962L132.042 194.456L132.042 193.422Q132.042 191.552 131.844 190.276L131.844 190.276L133.846 191.178L139.434 191.178L139.786 190.628Q139.852 190.540 139.962 190.386Q140.072 190.232 140.149 190.155Q140.226 190.078 140.314 190.078L140.314 190.078Q140.446 190.078 140.831 190.386Q141.216 190.694 141.546 191.046Q141.876 191.398 141.876 191.552L141.876 191.552ZM133.626 191.816L133.626 194.610L139.500 194.610L139.500 191.816L133.626 191.816ZM142.074 199.010Q142.206 199.010 142.646 199.362Q143.086 199.714 143.471 200.121Q143.856 200.528 143.856 200.682L143.856 200.682Q143.790 201.012 143.328 201.012L143.328 201.012L133.164 201.012Q131.602 201.034 129.864 201.320L129.864 201.320L129.314 200.220Q130.524 200.352 132.240 200.396L132.240 200.396L136.926 200.396Q137.366 199.384 137.674 198.174Q137.982 196.964 138.026 196.040L138.026 196.040Q140.512 196.744 140.512 197.030L140.512 197.030Q140.512 197.096 140.314 197.184L140.314 197.184L139.940 197.338Q139.478 198.086 138.818 198.900Q138.158 199.714 137.432 200.396L137.432 200.396L140.996 200.396L141.458 199.714Q141.524 199.626 141.656 199.417Q141.788 199.208 141.887 199.109Q141.986 199.010 142.074 199.010L142.074 199.010ZM134.814 200.198Q134.440 200.198 134.066 199.802L134.066 199.802Q134.088 199.032 133.835 198.108Q133.582 197.184 133.208 196.458L133.208 196.458L133.450 196.348Q134.638 196.942 135.177 197.668Q135.716 198.394 135.716 199.054L135.716 199.054Q135.716 199.538 135.452 199.868Q135.188 200.198 134.814 200.198L134.814 200.198Z"></path>
  <path fill="#4a4d55" d="M63.321 226.823L63.321 226.823Q63.321 227.411 62.892 227.766Q62.463 228.121 61.731 228.121L61.731 228.121Q61.055 228.121 60.694 227.829Q60.334 227.538 60.334 227.093L60.334 227.093Q60.334 226.839 60.466 226.685Q60.598 226.531 60.857 226.531L60.857 226.531Q61.044 226.531 61.170 226.688Q61.297 226.845 61.297 227.093L61.297 227.093L61.297 227.456Q61.297 227.731 61.412 227.893Q61.528 228.055 61.814 228.055L61.814 228.055Q62.127 228.055 62.314 227.838Q62.501 227.620 62.501 227.219L62.501 227.219Q62.501 226.960 62.386 226.713Q62.270 226.465 62.119 226.188Q61.968 225.910 61.849 225.575Q61.731 225.239 61.731 224.810L61.731 224.810L61.731 220.636Q61.731 220.470 61.588 220.448L61.588 220.448L61.038 220.371Q60.967 220.361 60.967 220.333L60.967 220.333Q60.967 220.300 61.022 220.300L61.022 220.300L63.557 220.300Q63.612 220.300 63.612 220.333L63.612 220.333Q63.612 220.350 63.519 220.371L63.519 220.371L63.024 220.448Q62.864 220.482 62.864 220.602L62.864 220.602L62.864 224.799Q62.864 225.222 62.977 225.544Q63.090 225.866 63.205 226.166Q63.321 226.465 63.321 226.823Z M73.550 220.190L73.550 220.190Q74.623 220.190 75.442 220.702Q76.262 221.213 76.724 222.107Q77.186 223.000 77.186 224.133L77.186 224.133Q77.186 225.333 76.719 226.226Q76.251 227.120 75.423 227.615Q74.596 228.110 73.523 228.110L73.523 228.110Q72.451 228.110 71.628 227.599Q70.806 227.087 70.344 226.188Q69.882 225.288 69.882 224.128L69.882 224.128Q69.882 222.946 70.355 222.060Q70.828 221.174 71.656 220.682Q72.484 220.190 73.550 220.190ZM76.020 224.981L76.020 224.981Q76.020 224.007 75.808 223.163Q75.597 222.319 75.214 221.678Q74.832 221.037 74.323 220.679Q73.814 220.322 73.226 220.322L73.226 220.322Q72.264 220.322 71.650 221.084Q71.037 221.845 71.037 223.275L71.037 223.275Q71.037 224.260 71.252 225.115Q71.466 225.970 71.851 226.614Q72.236 227.257 72.748 227.618Q73.259 227.978 73.847 227.978L73.847 227.978Q74.821 227.978 75.421 227.219Q76.020 226.460 76.020 224.981Z M87.691 227.967L87.691 227.967Q87.691 228 87.641 228L87.641 228L85.078 228Q85.034 228 85.034 227.967L85.034 227.967Q85.034 227.940 85.084 227.934L85.084 227.934L85.606 227.857Q85.793 227.829 85.793 227.703L85.793 227.703L85.793 225.233L83.715 220.619Q83.638 220.443 83.445 220.410L83.445 220.410L83.170 220.371Q83.109 220.361 83.109 220.333L83.109 220.333Q83.109 220.300 83.164 220.300L83.164 220.300L85.546 220.300Q85.601 220.300 85.601 220.327L85.601 220.327Q85.601 220.361 85.535 220.371L85.535 220.371L85.056 220.432Q84.919 220.448 84.891 220.482Q84.864 220.514 84.897 220.586L84.897 220.586L86.871 225.002L88.516 221.197Q88.632 220.922 88.522 220.718Q88.411 220.514 88.054 220.427L88.054 220.427L87.817 220.371Q87.768 220.361 87.768 220.333L87.768 220.333Q87.768 220.300 87.806 220.300L87.806 220.300L89.506 220.300Q89.555 220.300 89.555 220.333L89.555 220.333Q89.555 220.361 89.501 220.377L89.501 220.377L89.391 220.405Q89.110 220.470 88.926 220.674Q88.742 220.877 88.609 221.202L88.609 221.202L86.926 225.113L86.926 227.703Q86.926 227.829 87.114 227.857L87.114 227.857L87.625 227.934Q87.691 227.945 87.691 227.967Z M96.678 227.967L96.678 227.967Q96.678 228 96.645 228L96.645 228L95.066 228Q95.028 228 95.028 227.967L95.028 227.967Q95.028 227.945 95.072 227.934L95.072 227.934L95.325 227.857Q95.474 227.813 95.617 227.659Q95.759 227.505 95.864 227.148L95.864 227.148L97.761 220.806Q97.861 220.487 97.514 220.393L97.514 220.393Q97.420 220.339 97.420 220.333L97.420 220.333Q97.420 220.300 97.465 220.300L97.465 220.300L99.197 220.300Q99.241 220.300 99.241 220.333L99.241 220.333Q99.241 220.361 99.147 220.388L99.147 220.388Q98.988 220.399 98.958 220.446Q98.927 220.493 98.971 220.619L98.971 220.619L101.232 227.648Q101.314 227.906 101.606 227.929L101.606 227.929Q101.655 227.940 101.655 227.967L101.655 227.967Q101.655 228 101.617 228L101.617 228L99.554 228Q99.516 228 99.516 227.967L99.516 227.967Q99.516 227.951 99.571 227.934L99.571 227.934L99.868 227.901Q100.105 227.851 100.022 227.609L100.022 227.609L99.230 225.118L96.568 225.118L95.957 227.164Q95.864 227.461 96.004 227.631Q96.144 227.802 96.425 227.879L96.425 227.879L96.634 227.934Q96.678 227.945 96.678 227.967ZM97.855 220.806L96.596 225.024L99.197 225.024L97.855 220.806Z M108.129 220.300L108.129 220.300L112.683 220.300Q112.832 220.300 112.961 220.220Q113.090 220.141 113.134 220.141L113.134 220.141Q113.145 220.141 113.156 220.157Q113.167 220.173 113.183 220.245L113.183 220.245L113.530 222.181Q113.546 222.252 113.514 222.258L113.514 222.258Q113.481 222.269 113.459 222.214L113.459 222.214Q113.162 221.433 112.909 221.040Q112.656 220.647 112.408 220.517Q112.160 220.388 111.897 220.388L111.897 220.388L111.005 220.388L111.005 227.714Q111.005 227.835 111.198 227.857L111.198 227.857L111.710 227.934Q111.764 227.940 111.764 227.967L111.764 227.967Q111.764 228 111.721 228L111.721 228L109.157 228Q109.114 228 109.114 227.967L109.114 227.967Q109.114 227.940 109.168 227.934L109.168 227.934L109.680 227.857Q109.873 227.835 109.873 227.714L109.873 227.714L109.873 220.388L108.981 220.388Q108.712 220.388 108.465 220.534Q108.217 220.679 107.967 221.073Q107.716 221.466 107.419 222.214L107.419 222.214Q107.398 222.269 107.365 222.258L107.365 222.258Q107.332 222.252 107.348 222.181L107.348 222.181L107.695 220.245Q107.711 220.173 107.722 220.157Q107.733 220.141 107.744 220.141L107.744 220.141Q107.777 220.141 107.882 220.220Q107.986 220.300 108.129 220.300Z M123.237 220.190L123.237 220.190Q124.310 220.190 125.129 220.702Q125.949 221.213 126.411 222.107Q126.873 223.000 126.873 224.133L126.873 224.133Q126.873 225.333 126.406 226.226Q125.938 227.120 125.110 227.615Q124.282 228.110 123.210 228.110L123.210 228.110Q122.138 228.110 121.315 227.599Q120.493 227.087 120.031 226.188Q119.569 225.288 119.569 224.128L119.569 224.128Q119.569 222.946 120.042 222.060Q120.515 221.174 121.343 220.682Q122.171 220.190 123.237 220.190ZM125.707 224.981L125.707 224.981Q125.707 224.007 125.495 223.163Q125.284 222.319 124.901 221.678Q124.519 221.037 124.010 220.679Q123.501 220.322 122.913 220.322L122.913 220.322Q121.951 220.322 121.337 221.084Q120.724 221.845 120.724 223.275L120.724 223.275Q120.724 224.260 120.939 225.115Q121.153 225.970 121.538 226.614Q121.923 227.257 122.434 227.618Q122.946 227.978 123.534 227.978L123.534 227.978Q124.508 227.978 125.108 227.219Q125.707 226.460 125.707 224.981Z M138.841 224.727L138.841 224.727L138.643 221.037Q138.626 220.828 138.525 220.696Q138.423 220.564 138.175 220.493L138.175 220.493L137.625 220.366Q137.582 220.350 137.582 220.333L137.582 220.333Q137.582 220.300 137.625 220.300L137.625 220.300L139.622 220.300Q139.666 220.300 139.666 220.333L139.666 220.333Q139.666 220.355 139.600 220.371L139.600 220.371L139.149 220.504Q138.957 220.559 138.844 220.704Q138.731 220.850 138.748 221.037L138.748 221.037L138.951 224.673Q138.968 224.970 138.987 225.261Q139.006 225.553 139.006 225.855L139.006 225.855Q139.006 226.488 138.753 227.007Q138.500 227.527 137.953 227.835Q137.405 228.143 136.525 228.143L136.525 228.143Q135.558 228.143 134.925 227.857Q134.292 227.571 133.979 227.079Q133.665 226.587 133.665 225.959L133.665 225.959Q133.665 225.800 133.677 225.544Q133.688 225.288 133.704 225.027Q133.720 224.766 133.731 224.590L133.731 224.590L133.957 220.586Q133.968 220.470 133.764 220.443L133.764 220.443L133.253 220.366Q133.198 220.355 133.198 220.333L133.198 220.333Q133.198 220.300 133.242 220.300L133.242 220.300L135.805 220.300Q135.855 220.300 135.855 220.333L135.855 220.333Q135.855 220.355 135.799 220.366L135.799 220.366L135.272 220.443Q135.084 220.470 135.079 220.608L135.079 220.608L134.853 224.552Q134.832 224.970 134.826 225.319Q134.820 225.668 134.820 225.910L134.820 225.910Q134.820 226.966 135.326 227.488Q135.832 228.011 136.751 228.011L136.751 228.011Q137.725 228.011 138.308 227.436Q138.891 226.862 138.891 225.888L138.891 225.888Q138.891 225.547 138.874 225.256Q138.857 224.964 138.841 224.727Z"></path>
</svg>