<svg xmlns="http://www.w3.org/2000/svg" viewBox="0 0 460 170" fill="none">
  <title>常夜燈 横ロックアップ 10 ／ 日英組み（アウトライン化済）</title>
  <desc>Joyatou horizontal lockup — mark + 常夜燈 / JOYATOU, text outlined</desc>
  <g transform="translate(0,0) scale(0.85)">
  <rect x="60" y="23" width="80" height="10" fill="#16181d"></rect>
  <rect x="77" y="43" width="46" height="3" fill="#16181d"></rect>
  <rect x="50" y="57" width="100" height="57" stroke="#16181d" stroke-width="2.5" fill="none"></rect>
  <circle cx="100" cy="85" r="5" fill="#16181d"></circle>
  <rect x="77" y="123" width="46" height="3" fill="#16181d"></rect>
  <rect x="60" y="137" width="80" height="10" fill="#16181d"></rect>
  <rect x="83" y="160" width="34" height="17" fill="#16181d"></rect></g>
  <line x1="184" y1="58" x2="184" y2="112" stroke="#16181d" stroke-width="0.75" stroke-opacity="0.2"></line>
  <path fill="#16181d" d="M231.304 74.456L232.060 73.592Q232.204 73.448 232.528 73.070Q232.852 72.692 233.068 72.692L233.068 72.692Q233.284 72.692 234.004 73.340Q234.724 73.988 235.354 74.708Q235.984 75.428 235.984 75.680L235.984 75.680Q235.768 75.860 235.480 75.932Q235.192 76.004 234.688 76.040L234.688 76.040Q233.932 76.832 232.762 77.786Q231.592 78.740 230.548 79.424L230.548 79.424L230.116 79.136Q230.728 77.768 231.412 75.500L231.412 75.500L209.200 75.500Q209.236 77.264 208.678 78.542Q208.120 79.820 207.256 80.396L207.256 80.396Q206.536 80.864 205.888 80.864L205.888 80.864Q205.276 80.864 204.880 80.504Q204.484 80.144 204.484 79.460L204.484 79.460Q204.484 78.956 204.790 78.524Q205.096 78.092 205.600 77.840L205.600 77.840Q206.644 77.156 207.418 75.698Q208.192 74.240 208.156 72.620L208.156 72.620L208.696 72.584Q208.876 73.124 209.128 74.456L209.128 74.456L218.560 74.456Q218.560 70.316 218.128 67.580L218.128 67.580Q220.432 68.192 221.314 68.534Q222.196 68.876 222.196 69.128L222.196 69.128Q222.196 69.272 221.908 69.452L221.908 69.452L221.332 69.848L221.332 74.456L223.924 74.456Q224.788 72.944 225.526 71.072Q226.264 69.200 226.552 67.760L226.552 67.760Q230.584 69.380 230.584 69.848L230.584 69.848Q230.584 69.992 230.260 70.064L230.260 70.064L229.576 70.244Q227.272 72.692 224.968 74.456L224.968 74.456L231.304 74.456ZM209.956 68.480L210.280 68.192Q212.872 68.840 214.096 70.028Q215.320 71.216 215.320 72.440L215.320 72.440Q215.320 73.160 214.906 73.664Q214.492 74.168 213.880 74.168L213.880 74.168Q213.376 74.168 212.764 73.736L212.764 73.736Q212.656 72.440 211.828 70.946Q211 69.452 209.956 68.480L209.956 68.480ZM225.688 78.668L226.336 77.804Q226.444 77.660 226.642 77.408Q226.840 77.156 226.966 77.048Q227.092 76.940 227.236 76.940L227.236 76.940Q227.452 76.940 228.154 77.462Q228.856 77.984 229.450 78.596Q230.044 79.208 230.044 79.460L230.044 79.460Q229.900 79.640 229.540 79.838Q229.180 80.036 228.748 80.144L228.748 80.144L228.748 82.052L228.784 83.168Q228.820 84.500 228.928 85.652L228.928 85.652Q228.748 85.940 227.938 86.282Q227.128 86.624 226.480 86.624L226.480 86.624L226.012 86.624L226.012 85.292L221.296 85.292L221.296 88.964L228.388 88.964L228.964 88.172Q229.072 88.028 229.234 87.812Q229.396 87.596 229.522 87.488Q229.648 87.380 229.792 87.380L229.792 87.380Q230.008 87.380 230.782 87.902Q231.556 88.424 232.222 89Q232.888 89.576 232.888 89.828L232.888 89.828Q232.708 90.044 232.312 90.260Q231.916 90.476 231.484 90.548L231.484 90.548L231.484 95.732Q231.484 96.848 231.196 97.568Q230.908 98.288 230.044 98.738Q229.180 99.188 227.488 99.368L227.488 99.368Q227.380 98.576 227.254 98.126Q227.128 97.676 226.804 97.352L226.804 97.352Q225.940 96.596 224.032 96.380L224.032 96.380L224.032 95.876Q227.236 96.056 227.992 96.056L227.992 96.056Q228.424 96.056 228.568 95.912Q228.712 95.768 228.712 95.408L228.712 95.408L228.712 90.008L221.296 90.008L221.296 93.284Q221.404 97.388 221.548 99.620L221.548 99.620Q221.296 100.052 220.612 100.448Q219.928 100.844 218.992 100.844L218.992 100.844Q218.668 100.844 218.470 100.628Q218.272 100.412 218.272 100.124L218.272 100.124Q218.488 96.884 218.560 93.644L218.560 93.644L218.560 90.008L211.360 90.008L211.360 92.852Q211.432 96.308 211.576 98.324L211.576 98.324Q211.396 98.684 210.604 99.044Q209.812 99.404 209.020 99.404L209.020 99.404Q208.732 99.404 208.570 99.188Q208.408 98.972 208.408 98.684L208.408 98.684Q208.552 97.460 208.624 95.516L208.624 95.516L208.624 93.536Q208.624 89.792 208.264 87.488L208.264 87.488L211.576 88.964L218.560 88.964L218.560 85.292L214.024 85.292L214.024 86.192Q214.024 86.408 213.250 86.750Q212.476 87.092 211.720 87.092L211.720 87.092Q211.432 87.092 211.288 86.876Q211.144 86.660 211.144 86.372L211.144 86.372Q211.252 85.544 211.288 84.680L211.288 84.680Q211.288 84.176 211.324 83.852L211.324 83.852L211.324 82.232Q211.324 79.064 211.036 77.228L211.036 77.228L214.240 78.668L225.688 78.668ZM226.012 84.248L226.012 79.712L214.024 79.712L214.024 84.248L226.012 84.248Z M273.476 73.052L274.340 71.756Q274.484 71.540 274.736 71.180Q274.988 70.820 275.150 70.640Q275.312 70.460 275.456 70.460L275.456 70.460Q275.672 70.460 276.518 71.126Q277.364 71.792 278.102 72.530Q278.840 73.268 278.840 73.520L278.840 73.520Q278.696 74.096 277.904 74.096L277.904 74.096L265.016 74.096Q266.888 74.708 267.644 75.050Q268.400 75.392 268.400 75.608L268.400 75.608Q268.400 75.716 268.076 75.860L268.076 75.860L267.428 76.112Q266.672 77.912 265.988 79.280L265.988 79.280L272.396 79.280L273.188 78.416Q273.332 78.272 273.692 77.894Q274.052 77.516 274.268 77.516L274.268 77.516Q274.484 77.516 275.168 78.110Q275.852 78.704 276.446 79.370Q277.040 80.036 277.040 80.288L277.040 80.288Q276.860 80.540 276.536 80.648Q276.212 80.756 275.564 80.828L275.564 80.828Q273.368 88.208 268.976 92.996L268.976 92.996Q273.224 96.236 279.560 97.712L279.560 97.712L279.488 98.108Q277.544 98.648 277.112 100.880L277.112 100.880Q270.992 98.756 267.284 94.652L267.284 94.652Q262.712 98.756 256.160 100.844L256.160 100.844L255.836 100.340Q261.812 97.676 265.988 93.068L265.988 93.068Q263.576 89.828 261.956 85.328L261.956 85.328Q259.724 87.992 256.988 89.828L256.988 89.828L256.520 89.432Q259.112 86.768 261.326 82.718Q263.540 78.668 264.764 74.096L264.764 74.096L256.376 74.096Q259.472 75.392 259.472 75.788L259.472 75.788Q259.472 75.896 259.076 76.040L259.076 76.040L258.356 76.220Q256.808 79.316 254.756 81.980L254.756 81.980Q256.160 82.952 256.160 83.384L256.160 83.384Q256.160 83.564 255.836 83.744L255.836 83.744L255.332 83.960L255.332 91.412Q255.404 95.876 255.620 99.872L255.620 99.872Q255.296 100.232 254.540 100.574Q253.784 100.916 253.064 100.916L253.064 100.916Q252.704 100.916 252.434 100.700Q252.164 100.484 252.164 100.196L252.164 100.196Q252.308 98.072 252.416 96.074Q252.524 94.076 252.560 90.836L252.560 90.836L252.560 84.536Q250.148 87.164 247.304 89.036L247.304 89.036L246.908 88.640Q249.392 86.156 251.804 82.268Q254.216 78.380 255.800 74.096L255.800 74.096L252.992 74.096Q250.544 74.132 247.880 74.600L247.880 74.600L246.908 72.764Q248.888 72.980 251.696 73.052L251.696 73.052L261.488 73.052Q261.488 69.812 261.164 67.544L261.164 67.544Q265.304 68.552 265.304 69.092L265.304 69.092Q265.304 69.236 264.980 69.416L264.980 69.416L264.368 69.812L264.368 73.052L273.476 73.052ZM264.368 82.052Q263.684 83.168 262.496 84.680L262.496 84.680Q264.296 88.712 267.248 91.520L267.248 91.520Q270.848 86.768 272.540 80.324L272.540 80.324L265.412 80.324Q265.160 80.792 264.440 81.944L264.440 81.944L264.692 81.800Q267.032 82.520 268.112 83.636Q269.192 84.752 269.192 85.832L269.192 85.832Q269.192 86.516 268.814 86.948Q268.436 87.380 267.896 87.380L267.896 87.380Q267.320 87.380 266.816 86.912L266.816 86.912Q266.672 85.760 265.970 84.410Q265.268 83.060 264.368 82.052L264.368 82.052Z M300.456 95.876Q299.916 95.876 299.376 95.444L299.376 95.444Q299.124 94.148 298.278 92.600Q297.432 91.052 296.316 89.720L296.316 89.720Q295.632 93.248 294.210 95.912Q292.788 98.576 290.268 100.628L290.268 100.628L289.764 100.016Q291.816 97.604 292.860 94.472Q293.904 91.340 294.246 87.524Q294.588 83.708 294.588 78.020L294.588 78.020L294.516 76.364Q294.300 69.200 294.084 67.868L294.084 67.868Q296.316 68.444 297.216 68.822Q298.116 69.200 298.116 69.452L298.116 69.452Q298.116 69.632 297.828 69.812L297.828 69.812L297.252 70.208L297.180 79.784Q297.756 78.632 298.296 77.246Q298.836 75.860 299.088 74.816L299.088 74.816Q302.076 76.724 302.076 77.192L302.076 77.192Q302.076 77.336 301.752 77.408L301.752 77.408L301.140 77.516Q299.484 79.244 297.144 81.080L297.144 81.080Q296.964 86.120 296.496 88.784L296.496 88.784Q299.160 90.008 300.402 91.502Q301.644 92.996 301.644 94.328L301.644 94.328Q301.644 95.012 301.302 95.444Q300.960 95.876 300.456 95.876L300.456 95.876ZM316.584 76.328Q319.356 79.100 322.416 80.396L322.416 80.396L322.380 80.792Q321.624 80.936 321.066 81.512Q320.508 82.088 320.256 83.024L320.256 83.024Q313.416 78.740 310.932 68.156L310.932 68.156L311.508 67.940Q312.300 70.352 313.668 72.548L313.668 72.548Q314.460 71.576 315.144 70.388Q315.828 69.200 316.188 68.264L316.188 68.264Q317.736 69.380 318.366 69.920Q318.996 70.460 318.996 70.676L318.996 70.676Q318.996 70.820 318.636 70.892L318.636 70.892L317.988 70.928Q315.972 72.260 314.100 73.232L314.100 73.232Q314.964 74.528 316.008 75.680L316.008 75.680Q316.872 74.744 317.646 73.574Q318.420 72.404 318.780 71.432L318.780 71.432Q321.588 73.448 321.588 73.880L321.588 73.880Q321.588 74.060 321.228 74.060L321.228 74.060L320.580 74.060Q318.816 75.212 316.584 76.328L316.584 76.328ZM300.096 72.440L300.384 72.152Q302.868 72.476 304.002 73.412Q305.136 74.348 305.028 75.356L305.028 75.356Q306.216 73.052 306.828 70.820L306.828 70.820L304.740 70.820Q303.012 70.856 301.068 71.324L301.068 71.324L300.096 69.488Q301.932 69.704 304.560 69.776L304.560 69.776L306.720 69.776L307.440 68.912Q307.584 68.768 307.890 68.408Q308.196 68.048 308.412 68.048L308.412 68.048Q308.736 68.048 309.798 69.146Q310.860 70.244 310.860 70.640L310.860 70.640Q310.716 70.856 310.428 70.946Q310.140 71.036 309.492 71.108L309.492 71.108Q307.872 75.716 304.740 79.172L304.740 79.172Q306.648 79.388 309.312 79.460L309.312 79.460L311.508 79.460L312.192 78.452Q312.336 78.272 312.498 78.020Q312.660 77.768 312.840 77.588Q313.020 77.408 313.164 77.408L313.164 77.408Q313.380 77.408 314.064 77.948Q314.748 78.488 315.342 79.100Q315.936 79.712 315.936 79.964L315.936 79.964Q315.792 80.540 315.036 80.540L315.036 80.540L308.448 80.540Q307.044 80.576 305.568 81.044L305.568 81.044L304.668 79.280Q302.076 82.124 298.584 83.852L298.584 83.852L298.224 83.312Q301.968 80.720 304.560 76.256L304.560 76.256Q304.272 76.436 303.876 76.436L303.876 76.436Q303.480 76.436 303.012 76.184L303.012 76.184Q302.724 75.248 301.878 74.186Q301.032 73.124 300.096 72.440L300.096 72.440ZM290.916 85.292Q290.412 85.292 290.070 84.950Q289.728 84.608 289.728 84.068L289.728 84.068Q289.728 83.312 290.520 82.412L290.520 82.412Q291.096 81.692 291.564 79.910Q292.032 78.128 291.960 76.112L291.960 76.112L292.500 76.076Q293.364 78.812 293.364 81.008L293.364 81.008Q293.364 83.420 292.248 84.644L292.248 84.644Q291.636 85.292 290.916 85.292L290.916 85.292ZM318.888 84.176Q318.492 84.608 317.664 84.752L317.664 84.752L317.664 86.840L317.700 88.100Q317.736 89.540 317.844 90.800L317.844 90.800Q317.664 91.088 316.998 91.376Q316.332 91.664 315.432 91.664L315.432 91.664L315 91.664L315 90.260L305.388 90.260L305.388 91.484Q305.388 91.700 304.758 91.970Q304.128 92.240 303.228 92.240L303.228 92.240Q302.940 92.240 302.778 92.024Q302.616 91.808 302.616 91.520L302.616 91.520Q302.724 90.620 302.760 89.756L302.760 89.756L302.796 88.928L302.796 87.236Q302.796 84.176 302.472 82.088L302.472 82.088L305.748 83.564L314.892 83.564L315.468 82.664Q315.576 82.520 315.756 82.268Q315.936 82.016 316.062 81.890Q316.188 81.764 316.332 81.764L316.332 81.764Q316.548 81.764 317.178 82.268Q317.808 82.772 318.348 83.348Q318.888 83.924 318.888 84.176L318.888 84.176ZM305.388 84.608L305.388 89.180L315 89.180L315 84.608L305.388 84.608ZM319.212 96.380Q319.428 96.380 320.148 96.956Q320.868 97.532 321.498 98.198Q322.128 98.864 322.128 99.116L322.128 99.116Q322.020 99.656 321.264 99.656L321.264 99.656L304.632 99.656Q302.076 99.692 299.232 100.160L299.232 100.160L298.332 98.360Q300.312 98.576 303.120 98.648L303.120 98.648L310.788 98.648Q311.508 96.992 312.012 95.012Q312.516 93.032 312.588 91.520L312.588 91.520Q316.656 92.672 316.656 93.140L316.656 93.140Q316.656 93.248 316.332 93.392L316.332 93.392L315.720 93.644Q314.964 94.868 313.884 96.200Q312.804 97.532 311.616 98.648L311.616 98.648L317.448 98.648L318.204 97.532Q318.312 97.388 318.528 97.046Q318.744 96.704 318.906 96.542Q319.068 96.380 319.212 96.380L319.212 96.380ZM307.332 98.324Q306.720 98.324 306.108 97.676L306.108 97.676Q306.144 96.416 305.730 94.904Q305.316 93.392 304.704 92.204L304.704 92.204L305.100 92.024Q307.044 92.996 307.926 94.184Q308.808 95.372 308.808 96.452L308.808 96.452Q308.808 97.244 308.376 97.784Q307.944 98.324 307.332 98.324L307.332 98.324Z"></path>
  <path fill="#4a4d55" d="M207.828 120.609L207.828 120.609Q207.828 121.305 207.322 121.724Q206.815 122.143 205.950 122.143L205.950 122.143Q205.150 122.143 204.725 121.799Q204.299 121.454 204.299 120.927L204.299 120.927Q204.299 120.629 204.455 120.447Q204.611 120.264 204.917 120.264L204.917 120.264Q205.137 120.264 205.287 120.450Q205.436 120.635 205.436 120.927L205.436 120.927L205.436 121.356Q205.436 121.681 205.573 121.873Q205.709 122.065 206.048 122.065L206.048 122.065Q206.418 122.065 206.639 121.808Q206.860 121.552 206.860 121.077L206.860 121.077Q206.860 120.772 206.724 120.479Q206.587 120.186 206.408 119.858Q206.230 119.530 206.090 119.133Q205.950 118.737 205.950 118.230L205.950 118.230L205.950 113.296Q205.950 113.102 205.781 113.076L205.781 113.076L205.131 112.984Q205.047 112.971 205.047 112.939L205.047 112.939Q205.047 112.900 205.112 112.900L205.112 112.900L208.108 112.900Q208.173 112.900 208.173 112.939L208.173 112.939Q208.173 112.959 208.063 112.984L208.063 112.984L207.477 113.076Q207.289 113.114 207.289 113.257L207.289 113.257L207.289 118.217Q207.289 118.718 207.422 119.098Q207.555 119.478 207.692 119.832Q207.828 120.186 207.828 120.609Z M218.918 112.770L218.918 112.770Q220.186 112.770 221.155 113.374Q222.123 113.979 222.669 115.035Q223.215 116.091 223.215 117.430L223.215 117.430Q223.215 118.847 222.662 119.904Q222.110 120.960 221.132 121.545Q220.154 122.130 218.886 122.130L218.886 122.130Q217.619 122.130 216.647 121.525Q215.675 120.921 215.129 119.858Q214.583 118.796 214.583 117.424L214.583 117.424Q214.583 116.026 215.142 114.980Q215.701 113.933 216.679 113.352Q217.657 112.770 218.918 112.770ZM221.837 118.431L221.837 118.431Q221.837 117.281 221.587 116.283Q221.337 115.285 220.885 114.528Q220.433 113.771 219.832 113.349Q219.231 112.926 218.535 112.926L218.535 112.926Q217.398 112.926 216.673 113.826Q215.948 114.727 215.948 116.416L215.948 116.416Q215.948 117.580 216.202 118.591Q216.455 119.602 216.910 120.362Q217.365 121.123 217.970 121.548Q218.574 121.974 219.269 121.974L219.269 121.974Q220.420 121.974 221.129 121.077Q221.837 120.180 221.837 118.431Z M234.630 121.961L234.630 121.961Q234.630 122 234.572 122L234.572 122L231.542 122Q231.490 122 231.490 121.961L231.490 121.961Q231.490 121.928 231.549 121.922L231.549 121.922L232.167 121.831Q232.387 121.799 232.387 121.649L232.387 121.649L232.387 118.731L229.930 113.277Q229.839 113.069 229.612 113.030L229.612 113.030L229.287 112.984Q229.215 112.971 229.215 112.939L229.215 112.939Q229.215 112.900 229.280 112.900L229.280 112.900L232.095 112.900Q232.160 112.900 232.160 112.933L232.160 112.933Q232.160 112.971 232.082 112.984L232.082 112.984L231.517 113.056Q231.354 113.076 231.322 113.114Q231.289 113.153 231.328 113.238L231.328 113.238L233.661 118.457L235.605 113.959Q235.742 113.635 235.612 113.394Q235.482 113.153 235.059 113.049L235.059 113.049L234.780 112.984Q234.721 112.971 234.721 112.939L234.721 112.939Q234.721 112.900 234.767 112.900L234.767 112.900L236.775 112.900Q236.834 112.900 236.834 112.939L236.834 112.939Q236.834 112.971 236.768 112.991L236.768 112.991L236.638 113.023Q236.307 113.102 236.089 113.342Q235.871 113.582 235.715 113.966L235.715 113.966L233.726 118.588L233.726 121.649Q233.726 121.799 233.947 121.831L233.947 121.831L234.552 121.922Q234.630 121.935 234.630 121.961Z M244.251 121.961L244.251 121.961Q244.251 122 244.212 122L244.212 122L242.347 122Q242.301 122 242.301 121.961L242.301 121.961Q242.301 121.935 242.353 121.922L242.353 121.922L242.652 121.831Q242.828 121.779 242.997 121.597Q243.166 121.415 243.289 120.993L243.289 120.993L245.532 113.498Q245.649 113.121 245.239 113.010L245.239 113.010Q245.129 112.945 245.129 112.939L245.129 112.939Q245.129 112.900 245.181 112.900L245.181 112.900L247.228 112.900Q247.280 112.900 247.280 112.939L247.280 112.939Q247.280 112.971 247.170 113.004L247.170 113.004Q246.981 113.017 246.945 113.072Q246.910 113.127 246.962 113.277L246.962 113.277L249.633 121.584Q249.731 121.889 250.075 121.915L250.075 121.915Q250.134 121.928 250.134 121.961L250.134 121.961Q250.134 122 250.088 122L250.088 122L247.651 122Q247.605 122 247.605 121.961L247.605 121.961Q247.605 121.942 247.670 121.922L247.670 121.922L248.021 121.883Q248.301 121.825 248.203 121.538L248.203 121.538L247.267 118.594L244.121 118.594L243.400 121.012Q243.289 121.363 243.455 121.564Q243.621 121.766 243.952 121.857L243.952 121.857L244.199 121.922Q244.251 121.935 244.251 121.961ZM245.642 113.498L244.154 118.484L247.228 118.484L245.642 113.498Z M256.784 112.900L256.784 112.900L262.166 112.900Q262.341 112.900 262.494 112.806Q262.647 112.712 262.699 112.712L262.699 112.712Q262.712 112.712 262.725 112.731Q262.738 112.751 262.757 112.835L262.757 112.835L263.167 115.123Q263.187 115.207 263.148 115.214L263.148 115.214Q263.108 115.227 263.083 115.162L263.083 115.162Q262.732 114.239 262.433 113.774Q262.134 113.309 261.841 113.157Q261.548 113.004 261.237 113.004L261.237 113.004L260.184 113.004L260.184 121.662Q260.184 121.805 260.411 121.831L260.411 121.831L261.016 121.922Q261.081 121.928 261.081 121.961L261.081 121.961Q261.081 122 261.029 122L261.029 122L258.000 122Q257.947 122 257.947 121.961L257.947 121.961Q257.947 121.928 258.012 121.922L258.012 121.922L258.617 121.831Q258.845 121.805 258.845 121.662L258.845 121.662L258.845 113.004L257.792 113.004Q257.473 113.004 257.180 113.176Q256.888 113.349 256.592 113.813Q256.297 114.278 255.946 115.162L255.946 115.162Q255.920 115.227 255.881 115.214L255.881 115.214Q255.842 115.207 255.861 115.123L255.861 115.123L256.271 112.835Q256.290 112.751 256.303 112.731Q256.316 112.712 256.329 112.712L256.329 112.712Q256.368 112.712 256.492 112.806Q256.615 112.900 256.784 112.900Z M273.640 112.770L273.640 112.770Q274.907 112.770 275.876 113.374Q276.844 113.979 277.390 115.035Q277.936 116.091 277.936 117.430L277.936 117.430Q277.936 118.847 277.384 119.904Q276.831 120.960 275.853 121.545Q274.875 122.130 273.607 122.130L273.607 122.130Q272.340 122.130 271.368 121.525Q270.396 120.921 269.850 119.858Q269.304 118.796 269.304 117.424L269.304 117.424Q269.304 116.026 269.863 114.980Q270.422 113.933 271.400 113.352Q272.379 112.770 273.640 112.770ZM276.558 118.431L276.558 118.431Q276.558 117.281 276.308 116.283Q276.058 115.285 275.606 114.528Q275.154 113.771 274.553 113.349Q273.952 112.926 273.256 112.926L273.256 112.926Q272.119 112.926 271.394 113.826Q270.669 114.727 270.669 116.416L270.669 116.416Q270.669 117.580 270.923 118.591Q271.176 119.602 271.631 120.362Q272.086 121.123 272.691 121.548Q273.295 121.974 273.991 121.974L273.991 121.974Q275.141 121.974 275.850 121.077Q276.558 120.180 276.558 118.431Z M291.080 118.132L291.080 118.132L290.846 113.771Q290.827 113.524 290.706 113.368Q290.586 113.212 290.294 113.127L290.294 113.127L289.644 112.978Q289.592 112.959 289.592 112.939L289.592 112.939Q289.592 112.900 289.644 112.900L289.644 112.900L292.003 112.900Q292.055 112.900 292.055 112.939L292.055 112.939Q292.055 112.965 291.977 112.984L291.977 112.984L291.444 113.141Q291.217 113.206 291.083 113.378Q290.950 113.550 290.970 113.771L290.970 113.771L291.210 118.067Q291.230 118.418 291.252 118.763Q291.275 119.108 291.275 119.465L291.275 119.465Q291.275 120.213 290.976 120.827Q290.677 121.441 290.030 121.805Q289.384 122.169 288.344 122.169L288.344 122.169Q287.200 122.169 286.452 121.831Q285.705 121.493 285.334 120.911Q284.964 120.329 284.964 119.588L284.964 119.588Q284.964 119.400 284.977 119.098Q284.990 118.796 285.009 118.487Q285.029 118.178 285.042 117.970L285.042 117.970L285.308 113.238Q285.321 113.102 285.081 113.069L285.081 113.069L284.476 112.978Q284.411 112.965 284.411 112.939L284.411 112.939Q284.411 112.900 284.463 112.900L284.463 112.900L287.492 112.900Q287.551 112.900 287.551 112.939L287.551 112.939Q287.551 112.965 287.486 112.978L287.486 112.978L286.862 113.069Q286.641 113.102 286.634 113.264L286.634 113.264L286.368 117.924Q286.342 118.418 286.335 118.831Q286.329 119.244 286.329 119.530L286.329 119.530Q286.329 120.778 286.927 121.395Q287.525 122.013 288.610 122.013L288.610 122.013Q289.761 122.013 290.450 121.334Q291.139 120.654 291.139 119.504L291.139 119.504Q291.139 119.101 291.119 118.757Q291.100 118.412 291.080 118.132Z"></path>
</svg>